<svg id="e29fr8aacvia1" xmlns="http://www.w3.org/2000/svg" xmlns:xlink="http://www.w3.org/1999/xlink" viewBox="0 0 525.580000 368.580000" shape-rendering="geometricPrecision" text-rendering="geometricPrecision"><polyline id="e29fr8aacvia2" points="403.210000,64.150000 370.110000,320.340000 92.570000,315.530000 117.190000,72.910000" fill="rgb(255,255,255)" stroke="rgb(0,0,0)" stroke-width="10" stroke-miterlimit="10"/><path id="e29fr8aacvia3" d="M233,337.670000C373.660000,357.200000,530.860000,361.810000,699.340000,337.670000Q728.650000,333.470000,757,328.340000" transform="matrix(1 0 0 1 -232.30999755859375 -323.42001342773438)" fill="none" stroke="rgb(0,0,0)" stroke-width="10" stroke-miterlimit="10"/><polyline id="e29fr8aacvia4" points="132.960000,72.750000 103.280000,363.580000 389.020000,363.580000 427.180000,62.580000" fill="rgb(25,123,189)" stroke="rgb(0,0,0)" stroke-width="10" stroke-miterlimit="10"/><path id="e29fr8aacvia5" d="M233,392.780000C373.660000,412.320000,530.860000,416.920000,699.340000,392.780000Q728.650000,388.580000,757,383.450000" transform="matrix(1 0 0 1 -232.30999755859375 -323.42001342773438)" fill="rgb(255,255,255)" stroke="rgb(0,0,0)" stroke-width="10" stroke-miterlimit="10"/><path id="e29fr8aacvia6" d="M444.280000,539.380000C444.261454,532.759533,439.230532,527.229645,432.641305,526.586982C426.052078,525.944320,420.047446,530.397885,418.750000,536.890000C418.388253,538.734631,419.590369,540.523253,421.435000,540.885000C423.279631,541.246747,425.068253,540.044631,425.430000,538.200000C426.051056,535.061115,428.998674,532.940746,432.172123,533.350054C435.345572,533.759362,437.658708,536.558257,437.462989,539.752002C437.267270,542.945747,434.629681,545.441251,431.430000,545.460000C429.621091,545.558066,428.204594,547.053435,428.204594,548.865000C428.204594,550.676565,429.621091,552.171934,431.430000,552.270000C433.890946,552.265956,436.111633,553.745816,437.055266,556.018662C437.998898,558.291508,437.479355,560.909047,435.739201,562.649201C433.999047,564.389355,431.381508,564.908898,429.108662,563.965266C426.835816,563.021633,425.355956,560.800946,425.360000,558.340000C425.360000,556.456709,423.833291,554.930000,421.950000,554.930000C420.066709,554.930000,418.540000,556.456709,418.540000,558.340000C418.543136,558.942228,418.586566,559.543571,418.670000,560.140000C419.455223,565.767326,423.832463,570.216821,429.446181,571.094062C435.059898,571.971302,440.585927,569.069365,443.050526,563.949880C445.515125,558.830395,444.336943,552.700948,440.150000,548.860000C442.809285,546.425580,444.322573,542.985300,444.320000,539.380000Z" transform="matrix(1 0 0 1 -232.30999755859375 -323.42001342773438)" fill="rgb(255,255,255)" stroke="none" stroke-width="1"/><path id="e29fr8aacvia7" d="M479.640000,557.070000L479.640000,539.940000C479.640000,532.141739,473.318261,525.820000,465.520000,525.820000C457.721739,525.820000,451.400000,532.141739,451.400000,539.940000L451.400000,557.070000C451.400000,564.868261,457.721739,571.190000,465.520000,571.190000C473.318261,571.190000,479.640000,564.868261,479.640000,557.070000ZM472.830000,557.070000C472.830000,561.107202,469.557202,564.380000,465.520000,564.380000C461.482798,564.380000,458.210000,561.107202,458.210000,557.070000L458.210000,539.940000C458.210000,535.902798,461.482798,532.630000,465.520000,532.630000C469.557202,532.630000,472.830000,535.902798,472.830000,539.940000Z" transform="matrix(1 0 0 1 -232.30999755859375 -323.42001342773438)" fill="rgb(255,255,255)" stroke="none" stroke-width="1"/><path id="e29fr8aacvia8" d="M497.290000,548.610000C501.811888,548.610000,505.888522,545.886080,507.618973,541.708401C509.349425,537.530721,508.392911,532.722004,505.195454,529.524546C501.997996,526.327089,497.189279,525.370575,493.011599,527.101027C488.833920,528.831478,486.110000,532.908112,486.110000,537.430000C486.121008,543.599978,491.120022,548.598992,497.290000,548.610000ZM497.290000,533.060000C499.703484,533.060000,501.660000,535.016516,501.660000,537.430000C501.660000,539.843484,499.703484,541.800000,497.290000,541.800000C494.876516,541.800000,492.920000,539.843484,492.920000,537.430000C492.920000,536.271004,493.380409,535.159477,494.199943,534.339943C495.019477,533.520409,496.131004,533.060000,497.290000,533.060000Z" transform="matrix(1 0 0 1 -232.30999755859375 -323.42001342773438)" fill="rgb(255,255,255)" stroke="none" stroke-width="1"/><path id="e29fr8aacvia9" d="M604.940000,626.640000L595.070000,549.120000C594.712700,546.304738,593.969034,543.552165,592.860000,540.940000C592.065908,539.308054,590.132716,538.584030,588.461961,539.292836C586.791205,540.001641,585.968370,541.894888,586.590000,543.600000C587.452344,545.638021,588.031071,547.784694,588.310000,549.980000L590.610000,567.980000L581,567.980000L578.860000,551.150000C577.915660,543.831716,571.688954,538.349647,564.310000,538.340000L551,538.340000C548.365602,538.340000,546.230000,536.204398,546.230000,533.570000C546.230000,530.935602,548.365602,528.800000,551,528.800000L564.300000,528.800000C569.352240,528.796187,574.277808,530.380905,578.380000,533.330000C579.909829,534.434569,582.045431,534.089829,583.150000,532.560000C584.254569,531.030171,583.909829,528.894569,582.380000,527.790000C577.113620,524.003839,570.786082,521.977487,564.300000,522L551,522C544.604543,522,539.420001,527.184543,539.420001,533.580000C539.420001,539.975457,544.604543,545.160000,551,545.160000L564.300000,545.160000C568.250347,545.167491,571.583037,548.102311,572.090000,552.020000L574.090000,568.020000L561.890000,568.020000L561.890000,561.540000C561.890000,559.792223,561.195698,558.116031,559.959834,556.880166C558.723969,555.644302,557.047777,554.950000,555.300000,554.950000L534.670000,554.950000C531.032727,554.955507,528.085507,557.902727,528.080000,561.540000L528.080000,568L521.470000,568C520.470000,568,519.470000,568,518.470000,568.070000L544.770000,489.500000C545.504768,487.316100,545.142029,484.911941,543.795626,483.042047C542.449223,481.172153,540.284189,480.065723,537.980000,480.070000L433.640000,480.070000C432.379480,480.001664,431.184338,480.635294,430.533520,481.716967C429.882701,482.798640,429.882701,484.151360,430.533520,485.233033C431.184338,486.314706,432.379480,486.948336,433.640000,486.880000L538,486.880000C538.111347,486.874712,538.217422,486.927749,538.280000,487.020000C538.344947,487.113319,538.363384,487.231317,538.330000,487.340000L530.490000,510.750000C529.672757,510.875530,528.846808,510.935721,528.020000,510.930000C525.538552,510.983075,523.098850,510.286017,521.020000,508.930000C514.639628,505.156029,506.710372,505.156029,500.330000,508.930000C496.000706,511.557110,490.569294,511.557110,486.240000,508.930000C479.863314,505.155655,471.936686,505.155655,465.560000,508.930000C461.230706,511.557110,455.799294,511.557110,451.470000,508.930000C445.093314,505.155655,437.166686,505.155655,430.790000,508.930000C426.460706,511.557110,421.029294,511.557110,416.700000,508.930000C410.305526,505.169314,402.368893,505.196153,396,509C393.921150,510.356017,391.481448,511.053075,389,511C388.235430,510.998226,387.473655,510.907618,386.730000,510.730000L378.930000,487.410000C378.884442,487.305801,378.903992,487.184591,378.980000,487.100000C379.038680,487.002348,379.146194,486.944751,379.260000,486.950000L416.480000,486.950000C418.288909,486.851934,419.705406,485.356565,419.705406,483.545000C419.705406,481.733435,418.288909,480.238066,416.480000,480.140000L379.200000,480.140000C376.897496,480.140204,374.735580,481.247693,373.390164,483.116216C372.044748,484.984739,371.680016,487.386277,372.410000,489.570000L402.240000,578.690000C404.337059,584.976510,410.222946,589.214671,416.850000,589.210000L471,589.210000C468.596694,591.634988,466.377229,594.235506,464.360000,596.990000L445.800000,622.280000C443.929086,624.833895,443.650912,628.222082,445.080226,631.046930C446.509540,633.871777,449.404140,635.654607,452.570000,635.660000L474.260000,635.660000C476.143291,635.660000,477.670000,634.133291,477.670000,632.250000C477.670000,630.366709,476.143291,628.840000,474.260000,628.840000L452.580000,628.840000C451.981319,628.839104,451.433890,628.501997,451.163621,627.967793C450.893351,627.433588,450.946062,626.792854,451.300000,626.310000L458.910000,615.940000L596.700000,615.940000L598.180000,627.560000C598.219541,627.886226,598.117635,628.213784,597.900000,628.460000C597.686051,628.705119,597.375332,628.844029,597.050000,628.840000L490.330000,628.840000C488.446709,628.840000,486.920000,630.366709,486.920000,632.250000C486.920000,634.133291,488.446709,635.660000,490.330000,635.660000L597.050000,635.660000C599.337753,635.646492,601.510260,634.654170,603.018406,632.933852C604.526551,631.213534,605.226014,628.929844,604.940000,626.660000ZM534.890000,561.750000L555.110000,561.750000L555.110000,568L534.890000,568ZM408.700000,576.460000L389.050000,517.750000C392.658619,517.800651,396.207029,516.822497,399.280000,514.930000C403.605465,512.289236,409.044535,512.289236,413.370000,514.930000C419.746686,518.704345,427.673314,518.704345,434.050000,514.930000C438.375465,512.289236,443.814535,512.289236,448.140000,514.930000C454.516686,518.704345,462.443314,518.704345,468.820000,514.930000C473.145465,512.289236,478.584535,512.289236,482.910000,514.930000C489.286686,518.704345,497.213314,518.704345,503.590000,514.930000C507.915465,512.289236,513.354535,512.289236,517.680000,514.930000C520.777821,516.842579,524.359911,517.824877,528,517.760000L528.130000,517.760000L511.050000,568.760000C499.335080,570.527057,488.244670,575.183861,478.780000,582.310000L416.850000,582.310000C413.152259,582.313973,409.867933,579.948452,408.700000,576.440000ZM463.910000,609.070000L469.860000,600.970000C481.943297,584.562501,501.093285,574.859495,521.470000,574.820000L591.470000,574.820000L595.830000,609.070000Z" transform="matrix(1 0 0 1 -232.30999755859375 -323.42001342773438)" fill="rgb(255,255,255)" stroke="none" stroke-width="1"/><path id="e29fr8aacvia10" d="M519.430000,583.600000C513.294116,583.600000,508.320000,588.574116,508.320000,594.710000C508.320000,600.845884,513.294116,605.820000,519.430000,605.820000C525.565884,605.820000,530.540000,600.845884,530.540000,594.710000C530.528992,588.578682,525.561318,583.611008,519.430000,583.600000ZM519.430000,599.010000C517.690812,599.010000,516.122876,597.962339,515.457318,596.355539C514.791760,594.748739,515.159649,592.899232,516.389441,591.669441C517.619232,590.439649,519.468739,590.071760,521.075539,590.737318C522.682339,591.402876,523.730000,592.970812,523.730000,594.710000C523.724486,597.080918,521.800925,599.000006,519.430000,599Z" transform="matrix(1 0 0 1 -232.30999755859375 -323.42001342773438)" fill="rgb(255,255,255)" stroke="none" stroke-width="1"/><path id="e29fr8aacvia11" d="M545.910000,583.600000C541.414613,583.591907,537.357370,586.293635,535.631450,590.444511C533.905529,594.595386,534.851111,599.377272,538.026969,602.558858C541.202828,605.740444,545.983002,606.694640,550.136981,604.976201C554.290959,603.257763,556.999993,599.205394,557,594.710000C556.989036,588.586464,552.033506,583.621998,545.910000,583.600000ZM545.910000,599.010000C544.170812,599.010000,542.602876,597.962339,541.937318,596.355539C541.271760,594.748739,541.639649,592.899232,542.869441,591.669441C544.099232,590.439649,545.948739,590.071760,547.555539,590.737318C549.162339,591.402876,550.210000,592.970812,550.210000,594.710000C550.204486,597.080918,548.280925,599.000006,545.910000,599Z" transform="matrix(1 0 0 1 -232.30999755859375 -323.42001342773438)" fill="rgb(255,255,255)" stroke="none" stroke-width="1"/><script><![CDATA[!function(t,n){"object"==typeof exports&&"undefined"!=typeof module?module.exports=n():"function"==typeof define&&define.amd?define(n):(t=t||self).__SVGATOR_PLAYER__=n()}(this,(function(){"use strict";function t(n){return(t="function"==typeof Symbol&&"symbol"==typeof Symbol.iterator?function(t){return typeof t}:function(t){return t&&"function"==typeof Symbol&&t.constructor===Symbol&&t!==Symbol.prototype?"symbol":typeof t})(n)}function n(t,n){if(!(t instanceof n))throw new TypeError("Cannot call a class as a function")}function r(t,n){for(var r=0;r<n.length;r++){var e=n[r];e.enumerable=e.enumerable||!1,e.configurable=!0,"value"in e&&(e.writable=!0),Object.defineProperty(t,e.key,e)}}function e(t,n,e){return n&&r(t.prototype,n),e&&r(t,e),t}var i=Math.abs;function u(t){return t}function o(t,n,r){var e=1-r;return 3*r*e*(t*e+n*r)+r*r*r}function a(){var t=arguments.length>0&&void 0!==arguments[0]?arguments[0]:0,n=arguments.length>1&&void 0!==arguments[1]?arguments[1]:0,r=arguments.length>2&&void 0!==arguments[2]?arguments[2]:1,e=arguments.length>3&&void 0!==arguments[3]?arguments[3]:1;return t<0||t>1||r<0||r>1?null:i(t-n)<=1e-5&&i(r-e)<=1e-5?u:function(u){if(u<=0)return t>0?u*n/t:0===n&&r>0?u*e/r:0;if(u>=1)return r<1?1+(u-1)*(e-1)/(r-1):1===r&&t<1?1+(u-1)*(n-1)/(t-1):1;for(var a,l=0,f=1;l<f;){var s=o(t,r,a=(l+f)/2);if(i(u-s)<1e-5)break;s<u?l=a:f=a}return o(n,e,a)}}function l(){return 1}function f(t){return 1===t?1:0}function s(){var t=arguments.length>0&&void 0!==arguments[0]?arguments[0]:1,n=arguments.length>1&&void 0!==arguments[1]?arguments[1]:0;if(1===t){if(0===n)return f;if(1===n)return l}var r=1/t;return function(t){return t>=1?1:(t+=n*r)-t%r}}function c(t){var n=arguments.length>1&&void 0!==arguments[1]?arguments[1]:2;if(Number.isInteger(t))return t;var r=Math.pow(10,n);return Math.round(t*r)/r}var v=Math.PI/180;function h(t,n,r){return t>=.5?r:n}function y(t,n,r){return 0===t||n===r?n:t*(r-n)+n}function d(t,n,r){var e=y(t,n,r);return e<=0?0:e}function g(t,n,r){return 0===t?n:1===t?r:{x:y(t,n.x,r.x),y:y(t,n.y,r.y)}}function m(t,n,r){return 0===t?n:1===t?r:{x:d(t,n.x,r.x),y:d(t,n.y,r.y)}}function p(t,n,r){var e=function(t,n,r){return Math.round(y(t,n,r))}(t,n,r);return e<=0?0:e>=255?255:e}function b(t,n,r){return 0===t?n:1===t?r:{r:p(t,n.r,r.r),g:p(t,n.g,r.g),b:p(t,n.b,r.b),a:y(t,null==n.a?1:n.a,null==r.a?1:r.a)}}function w(t,n,r){if(0===t)return n;if(1===t)return r;var e=n.length;if(e!==r.length)return h(t,n,r);for(var i=[],u=0;u<e;u++)i.push(b(t,n[u],r[u]));return i}function A(t,n,r){var e=n.length;if(e!==r.length)return h(t,n,r);for(var i=new Array(e),u=0;u<e;u++)i[u]=y(t,n[u],r[u]);return i}function x(t,n){for(var r=[],e=0;e<t;e++)r.push(n);return r}function k(t,n){if(--n<=0)return t;var r=(t=Object.assign([],t)).length;do{for(var e=0;e<r;e++)t.push(t[e])}while(--n>0);return t}var S=/\.0+$/g;function _(t){return Number.isInteger(t)?t+"":t.toFixed(6).replace(S,"")}function M(t){var n=arguments.length>1&&void 0!==arguments[1]?arguments[1]:" ";return t&&t.length?t.map(_).join(n):""}function I(t){return _(t.x)+","+_(t.y)}function E(t){return t?null==t.a||t.a>=1?"rgb("+t.r+","+t.g+","+t.b+")":"rgba("+t.r+","+t.g+","+t.b+","+t.a+")":"transparent"}var F={f:null,i:m,u:function(t,n){return function(r){var e=n(r);t.setAttribute("rx",_(e.x)),t.setAttribute("ry",_(e.y))}}},B={f:null,i:function(t,n,r){return 0===t?n:1===t?r:{width:d(t,n.width,r.width),height:d(t,n.height,r.height)}},u:function(t,n){return function(r){var e=n(r);t.setAttribute("width",_(e.width)),t.setAttribute("height",_(e.height))}}},j=Math.sin,q=Math.cos,P=Math.acos,O=Math.asin,z=Math.tan,L=Math.atan2,C=Math.PI/180,R=180/Math.PI,T=Math.sqrt,V=function(){function t(){var r=arguments.length>0&&void 0!==arguments[0]?arguments[0]:1,e=arguments.length>1&&void 0!==arguments[1]?arguments[1]:0,i=arguments.length>2&&void 0!==arguments[2]?arguments[2]:0,u=arguments.length>3&&void 0!==arguments[3]?arguments[3]:1,o=arguments.length>4&&void 0!==arguments[4]?arguments[4]:0,a=arguments.length>5&&void 0!==arguments[5]?arguments[5]:0;n(this,t),this.m=[r,e,i,u,o,a],this.i=null,this.w=null,this.s=null}return e(t,[{key:"point",value:function(t,n){var r=this.m;return{x:r[0]*t+r[2]*n+r[4],y:r[1]*t+r[3]*n+r[5]}}},{key:"translateSelf",value:function(){var t=arguments.length>0&&void 0!==arguments[0]?arguments[0]:0,n=arguments.length>1&&void 0!==arguments[1]?arguments[1]:0;if(!t&&!n)return this;var r=this.m;return r[4]+=r[0]*t+r[2]*n,r[5]+=r[1]*t+r[3]*n,this.w=this.s=this.i=null,this}},{key:"rotateSelf",value:function(){var t=arguments.length>0&&void 0!==arguments[0]?arguments[0]:0;if(t%=360){var n=j(t*=C),r=q(t),e=this.m,i=e[0],u=e[1];e[0]=i*r+e[2]*n,e[1]=u*r+e[3]*n,e[2]=e[2]*r-i*n,e[3]=e[3]*r-u*n,this.w=this.s=this.i=null}return this}},{key:"scaleSelf",value:function(){var t=arguments.length>0&&void 0!==arguments[0]?arguments[0]:1,n=arguments.length>1&&void 0!==arguments[1]?arguments[1]:1;if(1!==t||1!==n){var r=this.m;r[0]*=t,r[1]*=t,r[2]*=n,r[3]*=n,this.w=this.s=this.i=null}return this}},{key:"skewSelf",value:function(t,n){if(n%=360,(t%=360)||n){var r=this.m,e=r[0],i=r[1],u=r[2],o=r[3];t&&(t=z(t*C),r[2]+=e*t,r[3]+=i*t),n&&(n=z(n*C),r[0]+=u*n,r[1]+=o*n),this.w=this.s=this.i=null}return this}},{key:"resetSelf",value:function(){var t=arguments.length>0&&void 0!==arguments[0]?arguments[0]:1,n=arguments.length>1&&void 0!==arguments[1]?arguments[1]:0,r=arguments.length>2&&void 0!==arguments[2]?arguments[2]:0,e=arguments.length>3&&void 0!==arguments[3]?arguments[3]:1,i=arguments.length>4&&void 0!==arguments[4]?arguments[4]:0,u=arguments.length>5&&void 0!==arguments[5]?arguments[5]:0,o=this.m;return o[0]=t,o[1]=n,o[2]=r,o[3]=e,o[4]=i,o[5]=u,this.w=this.s=this.i=null,this}},{key:"recomposeSelf",value:function(){var t=arguments.length>0&&void 0!==arguments[0]?arguments[0]:null,n=arguments.length>1&&void 0!==arguments[1]?arguments[1]:null,r=arguments.length>2&&void 0!==arguments[2]?arguments[2]:null,e=arguments.length>3&&void 0!==arguments[3]?arguments[3]:null,i=arguments.length>4&&void 0!==arguments[4]?arguments[4]:null;return this.isIdentity||this.resetSelf(),t&&(t.x||t.y)&&this.translateSelf(t.x,t.y),n&&this.rotateSelf(n),r&&(r.x&&this.skewSelf(r.x,0),r.y&&this.skewSelf(0,r.y)),!e||1===e.x&&1===e.y||this.scaleSelf(e.x,e.y),i&&(i.x||i.y)&&this.translateSelf(i.x,i.y),this}},{key:"decompose",value:function(){var t=arguments.length>0&&void 0!==arguments[0]?arguments[0]:0,n=arguments.length>1&&void 0!==arguments[1]?arguments[1]:0,r=this.m,e=r[0]*r[0]+r[1]*r[1],i=[[r[0],r[1]],[r[2],r[3]]],u=T(e);if(0===u)return{origin:{x:r[4],y:r[5]},translate:{x:t,y:n},scale:{x:0,y:0},skew:{x:0,y:0},rotate:0};i[0][0]/=u,i[0][1]/=u;var o=r[0]*r[3]-r[1]*r[2]<0;o&&(u=-u);var a=i[0][0]*i[1][0]+i[0][1]*i[1][1];i[1][0]-=i[0][0]*a,i[1][1]-=i[0][1]*a;var l=T(i[1][0]*i[1][0]+i[1][1]*i[1][1]);if(0===l)return{origin:{x:r[4],y:r[5]},translate:{x:t,y:n},scale:{x:u,y:0},skew:{x:0,y:0},rotate:0};i[1][0]/=l,i[1][1]/=l,a/=l;var f=0;return i[1][1]<0?(f=P(i[1][1])*R,i[0][1]<0&&(f=360-f)):f=O(i[0][1])*R,o&&(f=-f),a=L(a,T(i[0][0]*i[0][0]+i[0][1]*i[0][1]))*R,{origin:{x:r[4],y:r[5]},translate:{x:t,y:n},scale:{x:u,y:l},skew:{x:a,y:0},rotate:f}}},{key:"toString",value:function(){return null===this.s&&(this.s="matrix("+this.m.map(N).join(" ")+")"),this.s}},{key:"determinant",get:function(){var t=this.m;return t[0]*t[3]-t[1]*t[2]}},{key:"isIdentity",get:function(){if(null===this.i){var t=this.m;this.i=1===t[0]&&0===t[1]&&0===t[2]&&1===t[3]&&0===t[4]&&0===t[5]}return this.i}}]),t}(),D=/\.0+$/;function N(t){return Number.isInteger(t)?t:t.toFixed(14).replace(D,"")}Object.freeze({M:2,L:2,Z:0,H:1,V:1,C:6,Q:4,T:2,S:4,A:7});function G(t,n,r){return t+(n-t)*r}function $(t,n,r){var e=arguments.length>3&&void 0!==arguments[3]&&arguments[3],i={x:G(t.x,n.x,r),y:G(t.y,n.y,r)};return e&&(i.a=H(t,n)),i}function H(t,n){return Math.atan2(n.y-t.y,n.x-t.x)}function Q(t,n,r,e){var i=1-e;return i*i*t+2*i*e*n+e*e*r}function U(t,n,r,e){return 2*(1-e)*(n-t)+2*e*(r-n)}function Y(t,n,r,e){var i=arguments.length>4&&void 0!==arguments[4]&&arguments[4],u={x:Q(t.x,n.x,r.x,e),y:Q(t.y,n.y,r.y,e)};return i&&(u.a=Z(t,n,r,e)),u}function Z(t,n,r,e){return Math.atan2(U(t.y,n.y,r.y,e),U(t.x,n.x,r.x,e))}function J(t,n,r,e,i){var u=i*i;return i*u*(e-t+3*(n-r))+3*u*(t+r-2*n)+3*i*(n-t)+t}function K(t,n,r,e,i){var u=1-i;return 3*(u*u*(n-t)+2*u*i*(r-n)+i*i*(e-r))}function W(t,n,r,e,i){var u=arguments.length>5&&void 0!==arguments[5]&&arguments[5],o={x:J(t.x,n.x,r.x,e.x,i),y:J(t.y,n.y,r.y,e.y,i)};return u&&(o.a=X(t,n,r,e,i)),o}function X(t,n,r,e,i){return Math.atan2(K(t.y,n.y,r.y,e.y,i),K(t.x,n.x,r.x,e.x,i))}function tt(t,n,r){var e=arguments.length>3&&void 0!==arguments[3]&&arguments[3];if(rt(n)){if(et(r))return Y(n,r.start,r,t,e)}else if(rt(r)){if(n.end)return Y(n,n.end,r,t,e)}else{if(n.end)return r.start?W(n,n.end,r.start,r,t,e):Y(n,n.end,r,t,e);if(r.start)return Y(n,r.start,r,t,e)}return $(n,r,t,e)}function nt(t,n,r){var e=tt(t,n,r,!0);return e.a=function(t){var n=arguments.length>1&&void 0!==arguments[1]&&arguments[1];return n?t+Math.PI:t}(e.a)/v,e}function rt(t){return!t.type||"corner"===t.type}function et(t){return null!=t.start&&!rt(t)}var it=new V;var ut={f:function(t){return t?t.join(" "):""},i:function(n,r,e){if(0===n)return r;if(1===n)return e;var i=r.length;if(i!==e.length)return h(n,r,e);for(var u,o=new Array(i),a=0;a<i;a++){if((u=t(r[a]))!==t(e[a]))return h(n,r,e);if("number"===u)o[a]=y(n,r[a],e[a]);else{if(r[a]!==e[a])return h(n,r,e);o[a]=r[a]}}return o}},ot={f:null,i:A,u:function(t,n){return function(r){var e=n(r);t.setAttribute("x1",_(e[0])),t.setAttribute("y1",_(e[1])),t.setAttribute("x2",_(e[2])),t.setAttribute("y2",_(e[3]))}}},at={f:_,i:y},lt={f:_,i:function(t,n,r){var e=y(t,n,r);return e<=0?0:e>=1?1:e}},ft={f:M,i:function(t,n,r){var e,i,u,o=n.length,a=r.length;if(o!==a)if(0===o)n=x(o=a,0);else if(0===a)a=o,r=x(o,0);else{var l=(u=(e=o)*(i=a)/function(t,n){for(var r;n;)r=n,n=t%n,t=r;return t||1}(e,i))<0?-u:u;n=k(n,Math.floor(l/o)),r=k(r,Math.floor(l/a)),o=a=l}for(var f=[],s=0;s<o;s++)f.push(c(d(t,n[s],r[s]),6));return f}};function st(t,n,r,e,i,u,o,a){return n=function(t,n,r){for(var e,i,u,o=t.length-1,a={},l=0;l<=o;l++)(e=t[l]).e&&(e.e=n(e.e)),e.v&&"g"===(i=e.v).t&&i.r&&(u=r.getElementById(i.r))&&(a[i.r]=u.querySelectorAll("stop"));return a}(t,e,a),function(e){var i,u=r(e,t,ct);return u?"c"===u.t?E(u.v):"g"===u.t?(n[u.r]&&function(t,n){for(var r=0,e=t.length;r<e;r++)t[r].setAttribute("stop-color",E(n[r]))}(n[u.r],u.v),(i=u.r)?"url(#"+i+")":"none"):"none":"none"}}function ct(t,n,r){if(0===t)return n;if(1===t)return r;if(n&&r){var e=n.t;if(e===r.t)switch(n.t){case"c":return{t:e,v:b(t,n.v,r.v)};case"g":if(n.r===r.r)return{t:e,v:w(t,n.v,r.v),r:n.r}}}return h(t,n,r)}var vt={blur:m,brightness:d,contrast:d,"drop-shadow":function(t,n,r){return 0===t?n:1===t?r:{blur:m(t,n.blur,r.blur),offset:g(t,n.offset,r.offset),color:b(t,n.color,r.color)}},grayscale:d,"hue-rotate":y,invert:d,opacity:d,saturate:d,sepia:d};function ht(t,n,r){if(0===t)return n;if(1===t)return r;var e=n.length;if(e!==r.length)return h(t,n,r);for(var i,u=[],o=0;o<e;o++){if(n[o].type!==r[o].type)return n;if(!(i=vt[n[o].type]))return h(t,n,r);u.push({type:n.type,value:i(t,n[o].value,r[o].value)})}return u}var yt={blur:function(t){return t?function(n){t.setAttribute("stdDeviation",I(n))}:null},brightness:function(t,n,r){return(t=gt(r,n))?function(n){n=_(n),t.map((function(t){return t.setAttribute("slope",n)}))}:null},contrast:function(t,n,r){return(t=gt(r,n))?function(n){var r=_((1-n)/2);n=_(n),t.map((function(t){t.setAttribute("slope",n),t.setAttribute("intercept",r)}))}:null},"drop-shadow":function(t,n,r){var e=r.getElementById(n+"-blur");if(!e)return null;var i=r.getElementById(n+"-offset");if(!i)return null;var u=r.getElementById(n+"-flood");return u?function(t){e.setAttribute("stdDeviation",I(t.blur)),i.setAttribute("dx",_(t.offset.x)),i.setAttribute("dy",_(t.offset.y)),u.setAttribute("flood-color",E(t.color))}:null},grayscale:function(t){return t?function(n){t.setAttribute("values",M(function(t){return[.2126+.7874*(t=1-t),.7152-.7152*t,.0722-.0722*t,0,0,.2126-.2126*t,.7152+.2848*t,.0722-.0722*t,0,0,.2126-.2126*t,.7152-.7152*t,.0722+.9278*t,0,0,0,0,0,1,0]}(n)))}:null},"hue-rotate":function(t){return t?function(n){return t.setAttribute("values",_(n))}:null},invert:function(t,n,r){return(t=gt(r,n))?function(n){n=_(n)+" "+_(1-n),t.map((function(t){return t.setAttribute("tableValues",n)}))}:null},opacity:function(t,n,r){return(t=r.getElementById(n+"-A"))?function(n){return t.setAttribute("tableValues","0 "+_(n))}:null},saturate:function(t){return t?function(n){return t.setAttribute("values",_(n))}:null},sepia:function(t){return t?function(n){return t.setAttribute("values",M(function(t){return[.393+.607*(t=1-t),.769-.769*t,.189-.189*t,0,0,.349-.349*t,.686+.314*t,.168-.168*t,0,0,.272-.272*t,.534-.534*t,.131+.869*t,0,0,0,0,0,1,0]}(n)))}:null}};var dt=["R","G","B"];function gt(t,n){var r=dt.map((function(r){return t.getElementById(n+"-"+r)||null}));return-1!==r.indexOf(null)?null:r}var mt={fill:st,"fill-opacity":lt,stroke:st,"stroke-opacity":lt,"stroke-width":at,"stroke-dashoffset":{f:_,i:y},"stroke-dasharray":ft,opacity:lt,transform:function(n,r,e,i){if(!(n=function(n,r){if(!n||"object"!==t(n))return null;var e=!1;for(var i in n)n.hasOwnProperty(i)&&(n[i]&&n[i].length?(n[i].forEach((function(t){t.e&&(t.e=r(t.e))})),e=!0):delete n[i]);return e?n:null}(n,i)))return null;var u=function(t,i,u){var o=arguments.length>3&&void 0!==arguments[3]?arguments[3]:null;return n[t]?e(i,n[t],u):r&&r[t]?r[t]:o};return r&&r.a&&n.o?function(t){var r=e(t,n.o,nt);return it.recomposeSelf(r,u("r",t,y,0)+r.a,u("k",t,g),u("s",t,g),u("t",t,g)).toString()}:function(t){return it.recomposeSelf(u("o",t,tt,null),u("r",t,y,0),u("k",t,g),u("s",t,g),u("t",t,g)).toString()}},"#filter":function(t,n,r,e,i,u,o,a){if(!n.items||!t||!t.length)return null;var l=function(t,n){var r=(t=t.map((function(t){return t&&yt[t[0]]?(n.getElementById(t[1]),yt[t[0]](n.getElementById(t[1]),t[1],n)):null}))).length;return function(n){for(var e=0;e<r;e++)t[e]&&t[e](n[e].value)}}(n.items,a);return l?(t=function(t,n){return t.map((function(t){return t.e=n(t.e),t}))}(t,e),function(n){l(r(n,t,ht))}):null},"#line":ot,points:{f:M,i:A},d:ut,r:at,"#size":B,"#radius":F,_:function(t,n){if(Array.isArray(t))for(var r=0;r<t.length;r++)this[t[r]]=n;else this[t]=n}},pt=function(){function t(r){n(this,t),this.list=r,this.length=r.length}return e(t,[{key:"setAttribute",value:function(t,n){for(var r=this.list,e=0;e<this.length;e++)r[e].setAttribute(t,n)}},{key:"removeAttribute",value:function(t){for(var n=this.list,r=0;r<this.length;r++)n[r].removeAttribute(t)}},{key:"style",value:function(t,n){for(var r=this.list,e=0;e<this.length;e++)r[e].style[t]=n}}]),t}(),bt=/-./g,wt=function(t,n){return n.toUpperCase()};function At(t){return"function"==typeof t?t:h}function xt(t){return t?"function"==typeof t?t:Array.isArray(t)?function(t){var n=arguments.length>1&&void 0!==arguments[1]?arguments[1]:u;if(!Array.isArray(t))return n;switch(t.length){case 1:return s(t[0])||n;case 2:return s(t[0],t[1])||n;case 4:return a(t[0],t[1],t[2],t[3])||n}return n}(t,null):function(t,n){var r=arguments.length>2&&void 0!==arguments[2]?arguments[2]:u;switch(t){case"linear":return u;case"steps":return s(n.steps||1,n.jump||0)||r;case"bezier":case"cubic-bezier":return a(n.x1||0,n.y1||0,n.x2||0,n.y2||0)||r}return r}(t.type,t.value,null):null}function kt(t,n,r){var e=arguments.length>3&&void 0!==arguments[3]&&arguments[3],i=n.length-1;if(t<=n[0].t)return e?[0,0,n[0].v]:n[0].v;if(t>=n[i].t)return e?[i,1,n[i].v]:n[i].v;var u,o=n[0],a=null;for(u=1;u<=i;u++){if(!(t>n[u].t)){a=n[u];break}o=n[u]}return null==a?e?[i,1,n[i].v]:n[i].v:o.t===a.t?e?[u,1,a.v]:a.v:(t=(t-o.t)/(a.t-o.t),o.e&&(t=o.e(t)),e?[u,t,r(t,o.v,a.v)]:r(t,o.v,a.v))}function St(t,n){var r=arguments.length>2&&void 0!==arguments[2]?arguments[2]:null;return t&&t.length?"function"!=typeof n?null:("function"!=typeof r&&(r=null),function(e){var i=kt(e,t,n);return null!=i&&r&&(i=r(i)),i}):null}function _t(t,n){return t.t-n.t}function Mt(n,r,e,i,u){var o,a="@"===e[0],l="#"===e[0],f=mt[e],s=h;switch(a?(o=e.substr(1),e=o.replace(bt,wt)):l&&(e=e.substr(1)),t(f)){case"function":if(s=f(i,u,kt,xt,e,a,r,n),l)return s;break;case"string":s=St(i,At(f));break;case"object":if((s=St(i,At(f.i),f.f))&&"function"==typeof f.u)return f.u(r,s,e,a,n)}return s?function(t,n,r){var e=arguments.length>3&&void 0!==arguments[3]&&arguments[3];if(e)return t instanceof pt?function(e){return t.style(n,r(e))}:function(e){return t.style[n]=r(e)};if(Array.isArray(n)){var i=n.length;return function(e){var u=r(e);if(null==u)for(var o=0;o<i;o++)t[o].removeAttribute(n);else for(var a=0;a<i;a++)t[a].setAttribute(n,u)}}return function(e){var i=r(e);null==i?t.removeAttribute(n):t.setAttribute(n,i)}}(r,e,s,a):null}function It(n,r,e,i){if(!i||"object"!==t(i))return null;var u=null,o=null;return Array.isArray(i)?o=function(t){if(!t||!t.length)return null;for(var n=0;n<t.length;n++)t[n].e&&(t[n].e=xt(t[n].e));return t.sort(_t)}(i):(o=i.keys,u=i.data||null),o?Mt(n,r,e,o,u):null}function Et(t,n,r){if(!r)return null;var e=[];for(var i in r)if(r.hasOwnProperty(i)){var u=It(t,n,i,r[i]);u&&e.push(u)}return e.length?e:null}function Ft(t,n){if(!n.duration||n.duration<0)return null;var r=function(t,n){if(!n)return null;var r=[];if(Array.isArray(n))for(var e=n.length,i=0;i<e;i++){var u=n[i];if(2===u.length){var o=null;if("string"==typeof u[0])o=t.getElementById(u[0]);else if(Array.isArray(u[0])){o=[];for(var a=0;a<u[0].length;a++)if("string"==typeof u[0][a]){var l=t.getElementById(u[0][a]);l&&o.push(l)}o=o.length?1===o.length?o[0]:new pt(o):null}if(o){var f=Et(t,o,u[1]);f&&(r=r.concat(f))}}}else for(var s in n)if(n.hasOwnProperty(s)){var c=t.getElementById(s);if(c){var v=Et(t,c,n[s]);v&&(r=r.concat(v))}}return r.length?r:null}(t,n.elements);return r?function(t,n){var r=arguments.length>2&&void 0!==arguments[2]?arguments[2]:1/0,e=arguments.length>3&&void 0!==arguments[3]?arguments[3]:1,i=arguments.length>4&&void 0!==arguments[4]&&arguments[4],u=arguments.length>5&&void 0!==arguments[5]?arguments[5]:1,o=t.length,a=e>0?n:0;i&&r%2==0&&(a=n-a);var l=null;return function(f,s){var c=f%n,v=1+(f-c)/n;s*=e,i&&v%2==0&&(s=-s);var h=!1;if(v>r)c=a,h=!0,-1===u&&(c=e>0?0:n);else if(s<0&&(c=n-c),c===l)return!1;l=c;for(var y=0;y<o;y++)t[y](c);return h}}(r,n.duration,n.iterations||1/0,n.direction||1,!!n.alternate,n.fill||1):null}var Bt=function(){function t(r){var e=arguments.length>1&&void 0!==arguments[1]?arguments[1]:{};n(this,t),this._id=0,this._running=!1,this._animations=r,this.direction=e.direction||1,this.speed=e.speed||1,this.fps=e.fps||100,this.offset=e.offset||0}return e(t,[{key:"_start",value:function(){var t=this,n=arguments.length>0&&void 0!==arguments[0]?arguments[0]:0,r=-1/0,e=null,i={},u=function u(o){t._running=!0,null==e&&(e=o);var a=Math.round((o-e+n)*t.speed),l=t.fps?1e3/t.fps:0;if(a>r+l){t.offset=a,r=a;for(var f=t._animations,s=f.length,c=0,v=0;v<s;v++)i[v]?c++:(i[v]=f[v](a,t.direction),i[v]&&c++);if(c===s)return void t._stop()}t._id=window.requestAnimationFrame(u)};this._id=window.requestAnimationFrame(u)}},{key:"_stop",value:function(){this._id&&window.cancelAnimationFrame(this._id),this._running=!1}},{key:"play",value:function(){this._running||this._start(this.offset)}},{key:"stop",value:function(){this._stop(),this.offset=0;var t=this.direction,n=this._animations;requestAnimationFrame((function(){for(var r=0;r<n.length;r++)n[r](0,t)}))}},{key:"restart",value:function(){this._stop(),this.offset=0,this._start()}},{key:"pause",value:function(){this._stop()}},{key:"reverse",value:function(){this.direction=-this.direction}}],[{key:"build",value:function(n){if(!(n=function(t){if(!t||!t.root||!Array.isArray(t.animations))return null;var n=window.document.getElementById(t.root);if(!n)return null;var r=t.animations.map((function(t){return Ft(n,t)})).filter((function(t){return!!t}));return r.length?{element:n,animations:r,options:t.options||void 0}:null}(n)))return null;var r=n.element,e=n.options||{},i=new t(n.animations,n.options);return function(t,n,r){var e=arguments.length>3&&void 0!==arguments[3]?arguments[3]:null;if("click"===r){var i=function r(){n.removeEventListener("click",r),t.play()};return void n.addEventListener("click",i)}if("hover"===r)return n.addEventListener("mouseenter",(function(){return t.play()})),void n.addEventListener("mouseleave","freeze"===e?function(){return t.pause()}:function(){return t.stop()});t.play()}(i,r,e.start,e.hover),i}}]),t}();return function(){for(var t=0,n=["ms","moz","webkit","o"],r=0;r<n.length&&!window.requestAnimationFrame;++r)window.requestAnimationFrame=window[n[r]+"RequestAnimationFrame"],window.cancelAnimationFrame=window[n[r]+"CancelAnimationFrame"]||window[n[r]+"CancelRequestAnimationFrame"];window.requestAnimationFrame||(window.requestAnimationFrame=function(n){var r=Date.now(),e=Math.max(0,16-(r-t)),i=window.setTimeout((function(){n(r+e)}),e);return t=r+e,i},window.cancelAnimationFrame=window.clearTimeout)}(),Bt}));
__SVGATOR_PLAYER__.build({"root":"e29fr8aacvia1","animations":[{"duration":3000,"direction":1,"iterations":0,"fill":1,"alternate":false,"elements":{"e29fr8aacvia6":{"opacity":[{"t":0,"v":1,"e":[0.42,0,0.58,1]},{"t":1000,"v":0,"e":[0.42,0,0.58,1]},{"t":2000,"v":0,"e":[0.42,0,0.58,1]},{"t":3000,"v":1,"e":[0.42,0,0.58,1]}]},"e29fr8aacvia7":{"opacity":[{"t":0,"v":1,"e":[0.42,0,0.58,1]},{"t":1000,"v":0,"e":[0.42,0,0.58,1]},{"t":2000,"v":0,"e":[0.42,0,0.58,1]},{"t":3000,"v":1,"e":[0.42,0,0.58,1]}]},"e29fr8aacvia8":{"opacity":[{"t":0,"v":1,"e":[0.42,0,0.58,1]},{"t":1000,"v":0,"e":[0.42,0,0.58,1]},{"t":2000,"v":0,"e":[0.42,0,0.58,1]},{"t":3000,"v":1,"e":[0.42,0,0.58,1]}]}}}],"options":{"start":"load","hover":"freeze"}})]]></script></svg>